<svg height="512" viewBox="0 0 128 128" width="512" xmlns="http://www.w3.org/2000/svg"><path d="m22.684 57.017a5.388 5.388 0 0 0 -1.571 3.975l.994 30.193a5.373 5.373 0 0 0 9.169 3.622l6.321-6.32 23.87 23.871a1.748 1.748 0 0 0 2.474 0l14.084-14.084a1.749 1.749 0 0 0 0-2.475l-23.87-23.87 6.32-6.32a5.373 5.373 0 0 0 -3.622-9.17l-30.193-.994a5.417 5.417 0 0 0 -3.976 1.572zm35.734 4.1a1.843 1.843 0 0 1 -.418 2.017l-7.557 7.557a1.751 1.751 0 0 0 0 2.475l23.87 23.871-11.613 11.609-23.866-23.871a1.752 1.752 0 0 0 -2.475 0l-7.559 7.557a1.873 1.873 0 0 1 -3.2-1.263l-.994-30.193a1.873 1.873 0 0 1 1.934-1.933l30.192 1a1.841 1.841 0 0 1 1.686 1.178z"/><path d="m66.327 68.165a5.3 5.3 0 0 0 4.82 3.4l30.193.994h.175a5.375 5.375 0 0 0 5.372-5.55l-.994-30.193a5.373 5.373 0 0 0 -9.169-3.622l-6.324 6.319-23.867-23.871a1.8 1.8 0 0 0 -2.474 0l-14.084 14.084a1.749 1.749 0 0 0 0 2.475l23.87 23.87-6.32 6.32a5.3 5.3 0 0 0 -1.198 5.774zm3.673-3.299 7.557-7.557a1.751 1.751 0 0 0 0-2.475l-23.87-23.871 11.613-11.609 23.87 23.871a1.751 1.751 0 0 0 2.475 0l7.555-7.557a1.873 1.873 0 0 1 3.2 1.263l.994 30.193a1.856 1.856 0 0 1 -.547 1.385 1.83 1.83 0 0 1 -1.387.548l-30.192-.994a1.873 1.873 0 0 1 -1.268-3.197z"/></svg>